<?xml version="1.0" encoding="UTF-8"?>
<!DOCTYPE svg PUBLIC "-//W3C//DTD SVG 1.1//EN" "http://www.w3.org/Graphics/SVG/1.1/DTD/svg11.dtd">
<!-- Creator: CorelDRAW 2021 (64 Bit) -->
<svg xmlns="http://www.w3.org/2000/svg" xml:space="preserve" width="18.0188mm" height="14.293mm" version="1.1" style="shape-rendering:geometricPrecision; text-rendering:geometricPrecision; image-rendering:optimizeQuality; fill-rule:evenodd; clip-rule:evenodd"
viewBox="0 0 1801.88 1429.3"
 xmlns:xlink="http://www.w3.org/1999/xlink"
 xmlns:xodm="http://www.corel.com/coreldraw/odm/2003">
 <defs>
  <style type="text/css">
   <![CDATA[
    .str0 {stroke:#E8BC00;stroke-width:20;stroke-miterlimit:22.9256}
    .fil0 {fill:#E8BC00}
   ]]>
  </style>
 </defs>
 <g id="Camada_x0020_1">
  <metadata id="CorelCorpID_0Corel-Layer"/>
  <g id="_2036071583904">
   <path class="fil0 str0" d="M620.33 1286.99c-61.33,-166.5 19.96,-238.07 184.2,-184.97 29.35,72.23 29.81,112.18 2.82,187.16 -72.63,24.34 -115.58,23.92 -187.02,-2.19zm-131.7 -148.96c-102.25,-1.39 -204.36,-0.72 -306.62,-1.67 -103.73,-0.97 -185.96,-21.89 -180.86,92.23 88.55,52.59 353.5,28.79 485.09,28.86 72.79,226.65 296.15,205.15 393.21,103.6 18.96,-19.84 29.68,-41.24 45.96,-58.95 112.31,-122.2 657.05,28.35 863.21,-68.28 4.4,-107.28 -40.49,-98.26 -142.94,-98.17l-706.01 0.13c-32.31,-104.36 -83.63,-175.86 -227.21,-174.68 -136.72,1.13 -193.6,75.34 -223.83,176.93z"/>
   <path class="fil0 str0" d="M517.33 180.29c48.58,208.51 -151.08,231.8 -208.72,124.47 -63.79,-118.8 55.24,-230.06 208.72,-124.47zm111.46 181.29l19.54 -38.99c59.51,-52.59 1045.04,-25.94 1112.91,-24.01l26.5 -21.32 9.19 -57.65c-33.18,-1.58 -25.17,6.89 -22.33,-26.88l-1021.78 3.69c-118.87,-1.37 -87.65,-5.72 -95.79,-25.45 -11.41,-19.16 -1.33,-5.11 -24.44,-35.19 -95.94,-79.03 -280.3,-274.66 -459.71,50.98 -93.52,4.23 -108.17,-10.12 -177.89,29.41 12.32,125 51.19,86.06 183.67,94.53 95.55,210.49 336.61,234.54 450.13,50.88z"/>
   <path class="fil0 str0" d="M1382.17 631.38c134.56,-96.97 230.42,106.94 136.11,182.91 -77.52,62.44 -235.14,3.37 -194.1,-123.33 19.71,-60.87 23.76,-34.91 57.99,-59.58zm-658.32 31.42l-24.06 89.5c129.15,12.7 57.26,-33.95 149.64,-29.74 96.06,4.38 78.57,-33.46 110.57,32.74 30.78,-61.71 17.39,-37.64 69.89,-67.76l101.5 58.39c3.7,1.92 9.37,4.65 13.19,6.43l68.61 25.25c37,-11.93 22.01,-12.31 14.05,31.2 32.02,107.24 158.31,191.4 308.94,129.59 98.96,-40.61 65.32,-51.66 118.14,-115.81 87.4,-106.15 79.67,23.02 141.77,-94.19 -41.85,-128.73 -40.74,7.42 -146.08,-111.5 -41.74,-47.11 -48.66,-94.01 -138.87,-118.8 -187.39,-51.49 -259.26,59.01 -310.15,163.44l-477.14 1.26z"/>
   <path class="fil0 str0" d="M-1.12 728.5c44.46,0 37.66,-12.76 32.44,27.02l634.37 0.21 2.81 -96.41 -653.18 9.91 -16.44 59.27z"/>
   <path class="fil0 str0" d="M31.32 755.52c5.22,-39.78 12.02,-27.02 -32.44,-27.02 4.65,42.35 -7.51,35.13 32.44,27.02 25.74,52.4 155.91,29.23 278.84,29.3l903.03 -7.21c-8.51,37.3 -19.16,31.2 14.05,31.2 7.96,-43.51 22.95,-43.13 -14.05,-31.2l-68.61 -25.25c-3.82,-1.78 -9.49,-4.51 -13.19,-6.43l-101.5 -58.39c-52.5,30.12 -39.11,6.05 -69.89,67.76 -32,-66.2 -14.51,-28.36 -110.57,-32.74 -92.38,-4.21 -20.49,42.44 -149.64,29.74l24.06 -89.5 -55.35 -3.48 -2.81 96.41 -634.37 -0.21z"/>
  </g>
 </g>
</svg>
