<?xml version="1.0" encoding="UTF-8"?>
<!DOCTYPE svg PUBLIC "-//W3C//DTD SVG 1.1//EN" "http://www.w3.org/Graphics/SVG/1.1/DTD/svg11.dtd">
<!-- Creator: CorelDRAW 2021 (64 Bit) -->
<svg xmlns="http://www.w3.org/2000/svg" xml:space="preserve" width="88.484mm" height="77.265mm" version="1.1" style="shape-rendering:geometricPrecision; text-rendering:geometricPrecision; image-rendering:optimizeQuality; fill-rule:evenodd; clip-rule:evenodd"
viewBox="0 0 8848.4 7726.5"
 xmlns:xlink="http://www.w3.org/1999/xlink"
 xmlns:xodm="http://www.corel.com/coreldraw/odm/2003">
 <defs>
  <style type="text/css">
   <![CDATA[
    .fil0 {fill:white}
   ]]>
  </style>
 </defs>
 <g id="Camada_x0020_1">
  <metadata id="CorelCorpID_0Corel-Layer"/>
  <path class="fil0" d="M5285.7 2863.78c0.24,-171.64 -57.09,-216.64 -129.76,-311.96 -127.7,-167.51 -118.19,-60.45 -117.68,-344.26 0.52,-295.48 -5.34,-610.08 -10.55,-907.44 288.65,85.17 485.91,494.25 485.91,822.76l-3.82 386.96c405.01,-15.08 726.03,-32.5 1036.86,238.98 398.47,348.04 374.42,1045.81 -95.62,1383.81 -264.28,190.04 -553.61,148.07 -923.45,157.51 -66.47,245.04 122.67,892.95 -489.13,1224.51 -67.19,36.41 -144.71,69.67 -216.46,82.31 -201.51,35.51 -231,-39.05 -225.95,140.49 171.74,27.83 359.89,-22.62 499.24,-103.24 444.94,-257.43 576.07,-663.24 544.23,-1204.7 341.34,-25.45 649.53,18.87 926.44,-224.2 389.78,-342.16 524.2,-831.13 261.62,-1294.32 -82.67,-145.83 -137.87,-206.51 -260.05,-310.4 -289.98,-246.58 -494.03,-192.29 -926.09,-221.31 -19.32,-340.47 20.69,-548.51 -139.85,-808.67 -117.93,-191.09 -312.44,-404.34 -540.06,-444.47 -98.89,157.94 -46.08,225.06 -60.18,422.24 -9.69,135.48 -18.24,308.81 -26.88,447.81 -7.73,124.58 -7.87,357.58 -47.68,448.24 -55.18,125.66 -162.76,119.69 -210.07,297.94 -76.02,286.42 77.29,588.83 275.92,665.33 228.47,87.98 392.75,-312.89 393.06,-543.92z"/>
  <path class="fil0" d="M3601.66 2383.48c-420.48,1.13 -678.71,-9.19 -937.83,227.08 -816.98,744.96 -220.83,1963.45 939.05,1811.89 0.91,494.79 44.33,868.4 443.08,1144.9 144.03,99.86 389.1,251.67 411.93,2.19 4.38,-47.77 2.65,-96.32 2.53,-144.38l-11.4 -931.41c63.2,-200.18 285.67,-108.56 270.09,-423.42 -6.88,-139.12 -51.4,-508.23 -86.82,-630.25l-106.15 -0.46 26.17 611.5c-162.58,35.94 -123.41,-87.57 -123.16,-234.76 0.12,-70.61 -0.03,-141.17 0.39,-211.79 0.6,-103.78 20.36,-175.66 -93.89,-175.27 -19.11,24.79 -14.8,3.1 -28.98,45.74 0,0.01 -10.6,65.93 -10.77,68.04 -4.47,54.71 -2.23,112.32 -2.13,167.44 0.2,104.83 11.25,238.13 -10.28,326.89 -16.69,8.92 -9.67,19.96 -52.46,20.26 -44.14,0.31 -23.09,-2.72 -58.27,-13.09 0.16,-164.23 54.92,-452.16 26.48,-598.95l-98.91 -13.95c-44.41,153.1 -55.25,381.75 -79.28,553.83 -43.6,312.21 13.17,264.34 197.12,414.03 85.23,69.35 120.66,1016.96 118.04,1170.23 -753.93,-278.31 -550.05,-989.82 -606.69,-1274.13 -296.88,-45.52 -526.25,84.48 -908.4,-150.04 -608.29,-373.29 -541.83,-1492.5 390.77,-1625.54l405.77 -13.63c140.01,4.18 121.09,27.11 120.84,-256.54 -0.23,-268.07 0.33,-474.7 172.92,-697.78 199.86,-258.32 413.49,-348.6 762.63,-376.09 1.51,-150.01 -13.23,-132.19 -169.27,-113.81 -281.15,33.1 -451.97,142.44 -626.39,328 -271.28,288.6 -267.5,522.65 -276.73,993.27z"/>
  <path class="fil0" d="M6744.05 6568.27l9.02 583.19 466.27 -4.2 1.44 -113.07 -364.4 2.56 -1.2 -199.22 295.77 -17.36 2.89 -105.71 -280.78 -6.78 -16.51 -200.92 362.5 -3.17c14.5,-143.57 34.07,-127.95 -301.14,-118.9 -175.57,4.74 -173.86,-22.5 -173.86,183.58z"/>
  <path class="fil0" d="M2242.56 6840.13c4.74,-56.37 22.85,-96.81 40.26,-143.73 56.1,-151.19 32.79,-83.9 73.37,-119.41 19.05,91.97 77.72,194.1 67.85,272.78l-181.48 -9.64zm-225.9 309.92l96.56 -3.06 76.32 -177.54 302.45 0.54c38.42,205.37 83.83,178.44 161.21,182.16 2.12,-80.55 -101.93,-324.26 -127.01,-401.65 -41.15,-126.98 -81.61,-344.06 -201.55,-381.23 -109.42,75.9 -307.26,730.98 -307.98,780.78z"/>
  <path class="fil0" d="M3938.5 6729.91l-2.25 -226.69 267.61 10.29c169.99,191.14 -46.19,269.53 -265.36,216.4zm-99.04 -319.22c-18.79,114.09 -22.57,632.89 1.05,736.88l86.64 6.71 16.51 -288.22c245.69,-4.98 454.28,12.41 411.73,-296.55 -38.25,-277.75 -491.02,-180.01 -515.93,-158.82z"/>
  <path class="fil0" d="M3356.43 6729.1l-268.81 14.31 -1.47 -238.19c73.78,-1.14 219.78,-20.18 275.3,22.68 66.02,50.97 32.67,159.22 -5.02,201.2zm-362.04 417.86l80.33 4.24 12.82 -285.69c213.82,-2.31 374.72,12.74 419.57,-172.57 50.77,-209.8 -104.51,-315.42 -293.39,-314.92 -284.1,0.74 -228.96,8.06 -228.83,274.92 0.06,129.67 -14.61,380.03 9.5,494.02z"/>
  <path class="fil0" d="M4659.37 6495.66l194.78 14.26c2.65,160.79 -22.02,515.11 15.64,642.59 85.85,-0.26 92.21,13.38 97.45,-74.18l0.02 -573.65c150.72,-0.79 217.75,41.61 187.05,-118.3l-492.42 -7.51 -2.52 116.79z"/>
  <path class="fil0" d="M5921.31 6501.07l184.96 8.12 7.3 640.94 99.58 2.95 18.42 -636.83c133.33,-33.97 207.28,44.16 191.87,-129.21l-497.98 -9.76 -4.15 123.79z"/>
  <path class="fil0" d="M5556.38 2881.2c-27.6,174.15 -4.71,132.33 345.74,132.33 117.16,0 316.5,20.93 417.08,-22.74l5.98 -121.95c-137.47,-16.42 -685.37,-34.78 -768.8,12.36z"/>
  <path class="fil0" d="M4137.55 1685.24c-33.55,197.73 -17.87,490.03 -17.41,691.66 0.26,110.91 4.06,98.59 125.65,98.41 32.44,-255.55 31.87,-536.12 4.21,-792.31l-112.45 2.24z"/>
  <path class="fil0" d="M4999.12 5086.83c14.08,5.45 -1.98,74.2 130.4,10.61 20.32,-169.28 27.84,-600.06 0,-763.67l-129.13 -11.49 -1.27 764.55z"/>
  <path class="fil0" d="M2921.34 3868.44c117.7,28.42 708.31,33.69 779.87,-7.66 19.27,-20.69 21.69,-2.31 12.4,-101.01l-787.62 -8.02 -4.65 116.69z"/>
  <path class="fil0" d="M5504.21 6391.31c-33.45,76.42 -21.13,577.36 -21.13,663.83 0,53.7 -14.51,71.68 28.53,94.23 34.53,18.1 66.16,3.95 79.27,-20.4 14.85,-27.57 6.26,-199.93 6.25,-243.18 -0.03,-109.77 23.35,-418.41 -4.96,-494.53l-87.96 0.05z"/>
 </g>
</svg>
